<?xml version="1.0" standalone="no"?>
<!DOCTYPE svg PUBLIC "-//W3C//DTD SVG 20010904//EN"
 "http://www.w3.org/TR/2001/REC-SVG-20010904/DTD/svg10.dtd">
<svg version="1.0" xmlns="http://www.w3.org/2000/svg"
 width="209.000000pt" height="209.000000pt" viewBox="0 0 209.000000 209.000000"
 preserveAspectRatio="xMidYMid meet">
<metadata>
Created by potrace 1.14, written by Peter Selinger 2001-2017
</metadata>
<g transform="translate(0.000000,209.000000) scale(0.100000,-0.100000)"
fill="#000000" stroke="none">
<path d="M875 2029 c-38 -4 -99 -18 -135 -31 -55 -21 -65 -29 -68 -52 -2 -17
2 -28 13 -32 12 -5 4 -14 -33 -35 -145 -82 -172 -208 -118 -532 31 -183 54
-259 95 -301 l29 -31 -19 -30 c-24 -39 -24 -82 1 -122 11 -18 16 -33 12 -33
-5 0 -17 -6 -27 -14 -18 -13 -18 -14 4 -50 l23 -37 -25 6 c-14 4 -27 2 -31 -3
-6 -10 38 -76 73 -106 27 -24 27 -46 0 -46 -18 0 -20 -4 -14 -27 3 -16 20 -43
38 -60 30 -32 30 -33 8 -33 -32 0 -22 -19 26 -55 23 -16 49 -45 59 -63 10 -17
27 -35 36 -38 13 -4 16 -10 9 -22 -4 -9 -11 -33 -15 -53 -3 -19 -19 -47 -34
-61 -32 -30 -174 -127 -217 -148 l-30 -14 34 -4 c23 -2 40 3 55 17 13 12 58
45 102 74 74 48 81 57 115 126 39 82 54 92 118 84 52 -7 72 -28 45 -47 -10 -8
-22 -12 -26 -10 -5 3 -8 0 -8 -5 0 -6 -5 -11 -10 -11 -7 0 -7 6 0 19 15 29 12
37 -6 15 -8 -10 -13 -13 -9 -6 3 6 1 12 -4 12 -6 0 -11 -4 -11 -10 0 -5 -4
-10 -10 -10 -5 0 -6 7 -3 17 4 11 3 14 -5 9 -7 -4 -12 -2 -12 4 0 6 -5 8 -10
5 -6 -3 -10 -11 -10 -16 0 -6 4 -7 10 -4 6 3 10 2 10 -4 0 -5 -4 -13 -10 -16
-5 -3 -10 -1 -10 5 0 6 -5 8 -10 5 -6 -3 -10 -16 -10 -28 0 -18 2 -19 11 -7 8
11 9 8 4 -13 -4 -19 -2 -26 5 -22 5 3 10 12 10 20 0 29 16 22 18 -8 3 -41 12
-48 12 -9 0 17 4 34 10 37 6 4 7 -6 3 -26 -8 -40 16 -59 34 -26 l12 22 1 -22
c0 -13 6 -23 13 -23 6 0 33 -10 59 -22 44 -21 55 -38 49 -72 -1 -4 3 -14 9
-21 7 -8 7 -16 2 -19 -11 -7 -25 30 -22 58 1 10 -3 15 -9 12 -5 -4 -14 2 -20
11 -12 21 -16 12 -25 -54 -7 -49 12 -60 33 -20 l12 22 -5 -22 c-4 -22 -1 -23
50 -23 41 0 55 4 63 18 7 14 18 17 44 14 106 -12 296 171 389 376 105 230 160
610 127 877 -23 185 -78 304 -208 446 -198 216 -429 320 -666 298z m99 -28
c10 -16 -19 -19 -39 -5 -18 13 -17 14 7 14 15 0 29 -4 32 -9z m-133 -16 c0 -5
-5 -11 -13 -13 -9 -2 -8 0 2 8 12 9 10 11 -12 6 -14 -3 -34 -9 -45 -12 -12 -5
-15 -4 -8 4 19 20 76 26 76 7z m69 11 c0 -3 -4 -8 -10 -11 -5 -3 -10 -1 -10 4
0 6 5 11 10 11 6 0 10 -2 10 -4z m217 -21 c77 -25 137 -53 118 -55 -5 -1 -20
-3 -32 -6 -12 -2 -25 1 -29 8 -5 8 -2 9 9 5 10 -3 17 -2 17 3 0 6 -10 10 -23
10 -13 0 -28 5 -35 12 -9 9 -12 8 -12 -5 0 -9 -3 -16 -7 -15 -14 2 -61 -20
-69 -33 -5 -9 -2 -10 12 -4 61 25 73 28 89 21 16 -6 13 -9 -16 -24 -19 -9 -34
-24 -34 -32 -1 -31 -17 -80 -25 -75 -4 3 -20 -15 -34 -40 -15 -25 -31 -45 -37
-45 -6 0 -8 -4 -5 -8 3 -5 -4 -16 -15 -26 -20 -17 -21 -17 -14 6 12 36 35 78
44 78 4 0 13 17 19 39 14 46 15 51 3 51 -5 0 -11 -14 -15 -32 -5 -24 -9 -29
-18 -20 -9 9 -8 20 6 49 l18 38 -29 -30 c-16 -17 -27 -35 -25 -41 2 -7 -1 -15
-7 -19 -17 -10 -13 47 5 73 15 22 11 62 -7 62 -6 0 -6 -7 0 -19 7 -13 6 -23
-4 -37 -14 -18 -15 -16 -12 18 4 44 34 81 59 75 12 -3 22 3 29 15 10 18 9 20
-5 15 -8 -3 -18 -2 -21 3 -10 16 19 12 102 -15z m-117 7 c0 -12 -57 -52 -64
-45 -10 10 -7 23 5 23 6 0 17 7 25 15 17 16 34 20 34 7z m-245 -24 c5 -4 1 -7
-10 -6 -11 1 -30 -2 -42 -6 -13 -4 -23 -5 -23 -2 0 9 55 35 60 28 3 -4 9 -10
15 -14z m175 13 c0 -6 -5 -13 -11 -17 -8 -5 -8 -9 1 -14 8 -5 7 -17 -6 -43
-19 -41 -40 -50 -30 -14 3 12 8 33 11 47 5 25 5 25 -6 3 -7 -13 -16 -23 -21
-23 -4 0 -9 -10 -9 -22 -1 -18 -2 -19 -6 -5 -4 16 13 52 41 84 13 15 36 17 36
4z m-80 -41 c0 -5 -5 -10 -11 -10 -5 0 -7 5 -4 10 3 6 8 10 11 10 2 0 4 -4 4
-10z m-50 -20 c0 -5 -2 -10 -4 -10 -3 0 -8 5 -11 10 -3 6 -1 10 4 10 6 0 11
-4 11 -10z m138 -35 c-6 -13 -15 -22 -19 -19 -5 2 -3 16 3 29 6 13 15 22 19
19 5 -2 3 -16 -3 -29z m-108 15 c0 -5 -2 -10 -4 -10 -3 0 -8 5 -11 10 -3 6 -1
10 4 10 6 0 11 -4 11 -10z m384 -5 c4 -11 -3 -19 -19 -25 -14 -5 -25 -17 -25
-27 0 -15 1 -15 13 -1 18 24 83 34 90 14 8 -19 -1 -25 -55 -35 -32 -7 -36 -9
-15 -10 15 -1 27 -7 27 -13 -1 -26 -128 -253 -140 -250 -7 1 -18 -2 -25 -8 -9
-8 -15 -8 -20 0 -4 6 7 26 24 46 17 19 29 39 26 44 -3 4 11 43 30 85 20 43 34
79 32 82 -2 2 -14 -20 -26 -49 -13 -29 -37 -68 -54 -86 -66 -69 -80 -82 -89
-82 -13 0 31 60 48 67 8 3 14 10 14 15 0 5 9 23 21 39 11 16 18 32 15 37 -2 4
6 39 18 77 20 61 26 70 57 81 45 16 46 16 53 -1z m40 0 c3 -9 0 -15 -8 -15 -8
0 -16 7 -20 15 -3 9 0 15 8 15 8 0 16 -7 20 -15z m65 -11 c31 -26 40 -44 21
-44 -6 0 -15 11 -21 24 -7 15 -17 22 -29 19 -10 -3 -20 2 -23 11 -10 25 17 19
52 -10z m-524 -64 c7 -14 13 -47 13 -73 -1 -42 3 -51 45 -96 47 -51 50 -58 47
-121 -1 -27 5 -42 25 -60 15 -14 35 -41 45 -60 23 -45 36 -120 21 -120 -6 0
-11 9 -11 21 0 31 -18 58 -86 132 -60 64 -77 98 -54 112 6 3 10 15 10 25 0 14
-11 22 -39 30 -57 15 -83 74 -89 200 l-4 95 32 -30 c17 -16 38 -41 45 -55z
m45 45 c0 -8 -4 -15 -10 -15 -5 0 -7 7 -4 15 4 8 8 15 10 15 2 0 4 -7 4 -15z
m470 -10 c0 -8 -4 -15 -9 -15 -5 0 -11 7 -15 15 -3 9 0 15 9 15 8 0 15 -7 15
-15z m-443 -17 c-3 -8 -6 -5 -6 6 -1 11 2 17 5 13 3 -3 4 -12 1 -19z m-207 0
c0 -11 -12 -10 -30 2 -12 7 -10 9 8 7 12 0 22 -5 22 -9z m250 4 c0 -4 -16 -32
-35 -62 -30 -48 -35 -52 -35 -29 0 14 9 34 20 44 11 10 22 26 25 36 6 19 25
27 25 11z m-1 -63 c-37 -63 -37 -64 -45 -57 -3 4 11 30 30 58 20 29 36 57 37
64 0 8 2 8 5 0 3 -7 -9 -36 -27 -65z m481 40 c0 -10 -4 -19 -10 -19 -5 0 -10
4 -10 9 0 5 -3 17 -6 25 -5 12 -2 15 10 10 9 -3 16 -15 16 -25z m-788 -11 c-7
-7 -12 -8 -12 -2 0 14 12 26 19 19 2 -3 -1 -11 -7 -17z m723 11 c10 -15 5 -17
-44 -25 -35 -6 -43 -4 -39 7 7 22 72 36 83 18z m35 -10 c0 -5 -4 -9 -10 -9 -5
0 -10 7 -10 16 0 8 5 12 10 9 6 -3 10 -10 10 -16z m-716 -5 c9 -24 7 -27 -9
-10 -17 17 -19 26 -6 26 5 0 12 -7 15 -16z m791 -14 c10 -11 15 -20 11 -20 -4
0 -16 9 -28 20 -12 11 -17 20 -11 20 5 0 18 -9 28 -20z m-491 -36 c-11 -16
-24 -35 -31 -42 -22 -23 -16 16 8 55 14 22 25 31 31 25 6 -6 3 -20 -8 -38z
m-332 24 c-14 -14 -42 -19 -42 -9 0 12 8 17 31 18 16 2 19 -1 11 -9z m388 -1
c0 -7 -11 -28 -24 -45 -30 -42 -43 -19 -14 26 21 33 38 42 38 19z m360 -8 c0
-5 -10 -10 -22 -11 -13 0 -27 -2 -33 -2 -17 -2 -35 -17 -35 -28 0 -7 5 -7 14
1 19 16 116 27 116 13 0 -12 -23 -21 -58 -24 -16 0 -8 -4 18 -7 26 -3 48 -2
52 4 4 6 8 0 8 -12 0 -18 -6 -23 -27 -23 -16 0 -35 -5 -43 -10 -12 -8 -10 -10
9 -10 17 0 21 -4 15 -13 -5 -7 -2 -5 8 5 21 23 38 23 39 1 0 -14 2 -13 9 5 11
27 30 29 30 2 0 -19 -18 -27 -108 -45 -18 -4 -30 -10 -27 -15 5 -8 -84 -119
-169 -210 l-51 -55 48 45 c26 25 80 84 119 132 68 82 75 88 126 99 45 11 55
10 63 -2 7 -11 9 -11 9 4 0 9 6 17 14 17 27 0 5 -40 -23 -42 -14 -1 -34 -2
-43 -3 -9 0 -20 -4 -24 -8 -4 -4 -15 -7 -25 -7 -10 0 -21 -4 -24 -10 -4 -6 1
-7 11 -3 12 5 15 3 9 -6 -5 -9 1 -8 16 2 13 9 43 19 67 23 38 6 42 5 42 -14 0
-13 -6 -21 -17 -20 -10 0 -38 -4 -62 -10 -25 -6 -48 -9 -52 -6 -8 5 -21 -9
-140 -146 -45 -52 -90 -103 -101 -113 -10 -10 -18 -23 -18 -30 0 -7 10 0 21
16 11 15 26 24 31 21 7 -5 8 -2 4 7 -4 8 0 5 8 -5 9 -11 16 -24 16 -30 0 -5 2
-7 5 -5 2 3 1 20 -5 37 -5 18 -5 30 -1 28 4 -3 28 16 52 42 l44 47 -47 -45
c-27 -24 -48 -41 -48 -36 0 4 30 42 66 84 l66 75 92 3 c50 2 91 4 91 4 0 1 10
3 21 5 17 4 22 0 22 -20 0 -23 -3 -24 -74 -24 -48 0 -72 4 -68 10 3 6 -3 5
-15 -3 -32 -20 -26 -23 30 -19 28 1 76 0 106 -4 48 -6 54 -9 41 -21 -18 -18
-132 -9 -121 10 4 6 -1 5 -10 -2 -9 -8 -29 -13 -44 -12 -46 3 -52 1 -64 -22
-12 -22 -11 -22 8 -6 22 20 102 22 195 5 46 -9 55 -13 46 -24 -8 -10 -6 -17 8
-28 17 -13 18 -14 2 -15 -10 0 -18 5 -18 10 0 6 -9 10 -20 10 -12 0 -24 10
-30 23 -7 17 -9 18 -9 5 -1 -11 -9 -18 -21 -18 -12 0 -20 7 -21 18 -1 16 -2
16 -6 0 -5 -21 -53 -25 -54 -5 0 10 -2 10 -6 0 -2 -7 -13 -13 -23 -13 -10 0
-21 6 -24 13 -3 6 -4 -1 0 -17 3 -18 0 -32 -8 -37 -10 -7 -8 -9 6 -9 13 0 17
-5 13 -20 -3 -10 -1 -20 4 -22 5 -2 11 -17 15 -34 6 -30 4 -31 -20 -27 -20 4
-29 15 -40 52 -14 43 -14 32 -1 -38 2 -9 4 -19 4 -22 1 -3 12 -4 24 -2 14 3
31 -2 39 -11 9 -8 18 -13 20 -11 10 10 46 -42 51 -73 6 -30 5 -32 -13 -22 -11
6 -20 18 -20 28 0 12 -3 13 -8 5 -11 -17 -65 19 -74 49 l-6 23 -1 -23 c-1 -21
-2 -22 -28 -8 -20 10 -33 29 -45 68 -11 34 -15 40 -11 18 3 -19 14 -60 24 -90
10 -30 16 -43 14 -27 -6 31 -4 32 28 15 12 -7 23 -13 24 -13 1 0 5 -14 9 -30
7 -30 7 -30 -14 -12 -30 28 -41 14 -36 -46 4 -41 2 -49 -8 -39 -19 19 -33 14
-15 -6 19 -21 22 -48 7 -57 -6 -3 -14 4 -19 17 l-10 23 0 -22 c-1 -20 -37 -51
-47 -40 -3 2 0 33 6 68 5 35 9 78 9 94 -1 19 -4 10 -9 -22 -13 -88 -18 -98
-55 -116 -20 -9 -37 -17 -39 -17 -2 0 -4 37 -5 83 0 61 2 78 10 67 13 -18 13
-19 -21 83 -26 81 -34 85 -14 7 8 -30 14 -83 14 -118 0 -56 -2 -64 -22 -71
-21 -8 -24 -5 -30 32 -12 65 -17 67 -11 5 5 -55 5 -56 -26 -72 -17 -9 -31 -19
-31 -22 0 -2 13 2 29 11 28 14 30 14 34 -8 4 -19 4 -19 6 4 1 24 17 39 42 39
18 0 8 -49 -13 -66 -14 -10 -16 -14 -6 -11 10 4 19 -1 23 -11 5 -14 9 -13 21
10 17 32 54 56 55 36 0 -7 4 -4 9 7 7 16 9 17 9 3 1 -9 -12 -27 -28 -40 -22
-18 -27 -27 -21 -43 8 -19 9 -19 9 2 1 22 18 40 27 30 3 -3 1 -14 -5 -26 -12
-21 2 -40 15 -20 4 8 9 7 15 -2 7 -11 9 -9 9 6 1 18 2 17 15 -5 29 -51 39 -92
24 -101 -11 -7 -11 -9 3 -9 16 0 35 -36 25 -47 -3 -2 -2 -17 2 -31 5 -15 5
-36 0 -47 -8 -20 -9 -10 -13 70 -1 11 -9 21 -18 23 -9 2 -19 15 -21 30 -3 15
-3 6 -1 -20 2 -26 -1 -50 -6 -53 -11 -7 -30 50 -31 94 0 20 -4 45 -9 56 -5 12
-6 -5 -3 -41 4 -47 1 -71 -15 -107 -26 -58 -49 -64 -26 -7 9 23 14 43 11 47
-4 3 -2 14 4 24 6 13 6 19 -1 19 -5 0 -11 19 -11 43 -1 25 -4 32 -6 17 -2 -14
-24 -47 -49 -75 -25 -28 -39 -39 -32 -25 7 14 11 29 10 33 -1 5 6 20 16 35 12
17 17 34 12 47 -6 16 -8 14 -13 -12 -7 -34 -43 -53 -43 -22 0 10 5 15 11 12 5
-4 7 -3 3 2 -4 4 -3 14 3 22 7 8 8 13 1 13 -5 0 -15 -7 -22 -15 -14 -16 -40
-20 -40 -6 0 5 7 14 16 21 8 8 20 23 25 34 7 15 3 13 -13 -6 -28 -33 -38 -35
-38 -7 0 11 5 17 10 14 6 -3 10 4 10 16 0 17 -3 19 -14 10 -16 -14 -41 11 -33
33 4 10 0 12 -14 9 -10 -3 -17 -8 -15 -12 3 -4 -7 -8 -20 -9 -15 -1 -23 2 -19
8 4 6 10 8 14 6 4 -3 8 8 8 24 0 17 -2 30 -3 30 -2 0 -11 -14 -20 -31 -12 -24
-18 -28 -24 -18 -10 15 19 71 32 63 4 -3 5 3 1 13 -5 14 0 13 21 -7 16 -14 24
-30 21 -40 -5 -12 -4 -13 6 -3 16 16 33 17 24 2 -4 -6 1 -5 13 2 21 13 22 23
5 54 -6 11 -16 37 -23 58 -6 21 -14 36 -17 33 -3 -2 2 -27 12 -55 18 -55 11
-87 -12 -56 -7 11 -13 15 -13 10 0 -4 -9 0 -20 10 -11 10 -20 15 -20 10 0 -4
-8 -1 -17 6 -16 13 -17 12 -5 -3 11 -14 10 -21 -5 -45 -9 -15 -22 -31 -28 -35
-17 -13 -27 -9 -21 7 5 13 2 13 -19 -1 -27 -18 -30 -14 -14 19 7 16 3 14 -15
-7 -13 -16 -32 -57 -42 -90 -15 -50 -19 -56 -22 -33 -2 16 8 51 24 85 36 74
39 81 20 58 -9 -11 -19 -17 -22 -13 -4 4 -1 13 6 22 11 13 10 14 -5 9 -13 -5
-16 -4 -10 5 4 8 -3 6 -18 -4 -15 -9 -29 -25 -32 -36 -4 -10 -11 -19 -16 -19
-15 0 -11 7 24 46 29 34 30 36 7 24 -23 -12 -24 -12 -11 3 15 19 55 21 114 8
20 -5 37 -5 37 -1 0 5 -5 10 -11 12 -6 2 -13 28 -15 58 l-4 55 14 -49 c23 -76
31 -78 85 -20 26 28 58 77 72 108 19 43 29 56 46 56 12 0 25 5 29 11 4 8 -1 9
-16 4 -19 -6 -21 -4 -15 17 12 37 17 43 71 86 40 31 53 49 58 77 4 20 23 55
44 78 l36 42 -36 -33 c-30 -29 -36 -31 -42 -16 -4 11 10 40 41 86 64 92 79
115 66 103 -6 -5 -28 -35 -49 -65 -68 -97 -109 -149 -116 -150 -17 0 -7 28 17
50 13 12 23 26 22 29 -1 4 24 57 56 119 56 107 59 112 95 117 20 4 44 7 52 9
20 3 40 -4 40 -15z m-290 -30 c-13 -44 -27 -65 -37 -56 -4 4 4 28 17 52 28 51
33 53 20 4z m-441 9 c-6 -13 -21 -31 -34 -41 -23 -17 -24 -17 -22 8 1 16 12
31 27 39 36 20 41 19 29 -6z m856 2 c3 -5 1 -10 -4 -10 -6 0 -11 5 -11 10 0 6
2 10 4 10 3 0 8 -4 11 -10z m-25 -10 c0 -5 -5 -10 -11 -10 -5 0 -7 5 -4 10 3
6 8 10 11 10 2 0 4 -4 4 -10z m-764 -48 c-11 -10 -15 4 -8 28 l7 25 3 -23 c2
-13 1 -26 -2 -30z m-58 12 c-4 -22 -55 -60 -65 -49 -5 4 -2 10 5 12 6 3 12 11
12 18 0 13 26 34 43 35 5 0 7 -7 5 -16z m817 6 c3 -5 1 -10 -4 -10 -6 0 -11 5
-11 10 0 6 2 10 4 10 3 0 8 -4 11 -10z m45 0 c0 -5 -4 -10 -9 -10 -6 0 -13 5
-16 10 -3 6 1 10 9 10 9 0 16 -4 16 -10z m40 -32 c0 -4 -7 -8 -15 -8 -10 0
-15 10 -15 28 1 26 1 26 15 8 8 -11 15 -23 15 -28z m-680 22 c0 -5 -2 -10 -4
-10 -3 0 -8 5 -11 10 -3 6 -1 10 4 10 6 0 11 -4 11 -10z m77 -25 c-16 -17 -17
-14 -10 14 4 15 8 19 13 10 5 -6 3 -18 -3 -24z m-42 16 c3 -5 1 -12 -5 -16 -5
-3 -10 1 -10 9 0 18 6 21 15 7z m605 -11 c0 -5 -8 -10 -17 -10 -15 0 -16 2 -3
10 19 12 20 12 20 0z m-856 -61 c-9 -10 -20 -16 -24 -14 -5 3 -17 -10 -29 -28
-14 -22 -21 -26 -21 -14 0 9 4 17 10 17 5 0 7 7 4 15 -4 9 9 29 32 52 37 37
39 37 42 15 2 -13 -4 -32 -14 -43z m69 46 c-3 -9 -8 -14 -10 -11 -3 3 -2 9 2
15 9 16 15 13 8 -4z m303 -11 c-4 -9 -9 -15 -11 -12 -3 3 -3 13 1 22 4 9 9 15
11 12 3 -3 3 -13 -1 -22z m-59 -6 c-3 -8 -6 -5 -6 6 -1 11 2 17 5 13 3 -3 4
-12 1 -19z m-42 2 c3 -5 1 -10 -4 -10 -6 0 -11 5 -11 10 0 6 2 10 4 10 3 0 8
-4 11 -10z m655 -5 c0 -8 -4 -15 -10 -15 -5 0 -10 7 -10 15 0 8 5 15 10 15 6
0 10 -7 10 -15z m-35 -5 c-3 -5 -12 -10 -18 -10 -7 0 -6 4 3 10 19 12 23 12
15 0z m-955 -4 c0 -3 -4 -8 -10 -11 -5 -3 -10 -1 -10 4 0 6 5 11 10 11 6 0 10
-2 10 -4z m160 -27 c0 -10 -4 -19 -10 -19 -5 0 -10 12 -10 26 0 14 4 23 10 19
6 -3 10 -15 10 -26z m240 6 c-7 -9 -15 -13 -17 -11 -6 6 20 36 26 30 2 -2 -2
-10 -9 -19z m85 -14 c-8 -17 -20 -31 -25 -31 -15 0 -12 8 12 40 27 37 35 32
13 -9z m-426 -38 c-23 -32 -46 -59 -51 -61 -4 -2 -8 -13 -8 -25 0 -16 -3 -18
-9 -9 -12 20 31 103 70 136 47 40 47 24 -2 -41z m961 41 c0 -8 -4 -12 -10 -9
-5 3 -10 10 -10 16 0 5 5 9 10 9 6 0 10 -7 10 -16z m-62 -6 c-3 -7 -12 -14
-21 -16 -12 -2 -15 1 -11 12 7 19 38 22 32 4z m-828 -4 c0 -8 -69 -114 -85
-130 -11 -11 -25 -29 -31 -40 -7 -10 -15 -15 -20 -11 -5 4 -4 11 2 15 6 4 14
19 17 33 11 44 78 138 99 136 10 -1 18 -2 18 -3z m57 -41 c-3 -10 -5 -4 -5 12
0 17 2 24 5 18 2 -7 2 -21 0 -30z m-7 -39 c0 -7 11 -15 25 -18 15 -4 23 -11
19 -17 -4 -8 -9 -7 -15 2 -6 10 -12 9 -28 -5 -12 -11 -21 -24 -21 -29 0 -6 9
-2 20 8 11 10 20 16 20 14 0 -3 -9 -22 -20 -44 -11 -22 -20 -46 -20 -55 0 -8
9 3 19 25 16 34 20 37 26 21 5 -10 3 -21 -3 -25 -7 -4 -8 -12 -2 -21 5 -8 7
-34 6 -59 -2 -26 -1 -33 1 -16 3 16 14 38 26 50 12 11 28 32 34 48 13 29 33
37 33 12 0 -8 -4 -15 -10 -15 -5 0 -10 -6 -10 -13 0 -7 -10 -24 -23 -37 -21
-22 -23 -33 -20 -90 4 -75 13 -94 13 -27 0 35 5 50 23 64 27 22 57 67 57 85 0
8 -5 6 -11 -4 -16 -28 -30 -21 -17 7 l11 25 29 -27 c34 -32 35 -56 6 -103 -28
-47 -35 -23 -8 30 12 23 19 44 16 47 -2 3 -12 -9 -20 -26 -9 -17 -31 -48 -49
-68 -31 -37 -31 -37 -4 -20 26 17 27 17 27 -3 0 -11 -4 -20 -10 -20 -5 0 -10
-5 -10 -12 0 -6 11 -1 25 12 28 26 33 16 9 -18 -10 -15 -12 -27 -6 -35 5 -7
12 -21 16 -32 5 -16 2 -15 -14 5 -18 22 -20 23 -17 5 1 -11 6 -26 10 -32 5 -7
4 -13 -2 -13 -5 0 -14 12 -19 28 l-10 27 -1 -26 c-1 -14 4 -30 11 -37 9 -9 9
-14 0 -22 -6 -6 -10 -7 -7 -4 3 4 0 12 -5 19 -5 6 -14 29 -19 51 -9 39 -9 39
-10 7 -1 -42 -16 -43 -19 -1 -2 18 -6 35 -11 38 -4 3 -10 12 -13 20 -4 11 -9
6 -19 -15 l-12 -30 -7 35 c-5 23 -8 27 -9 13 0 -13 -6 -23 -12 -23 -7 0 -9 9
-5 24 3 12 2 26 -2 30 -3 4 -12 -14 -19 -41 l-12 -48 4 63 c2 36 -1 60 -6 56
-5 -3 -9 -12 -9 -20 0 -8 -5 -12 -10 -9 -6 4 -8 11 -5 16 3 5 10 34 15 65 5
31 25 88 44 125 18 38 30 69 26 69 -8 0 -24 -19 -25 -30 -1 -3 -15 -42 -33
-87 -18 -45 -32 -91 -32 -103 0 -11 -4 -20 -10 -20 -13 0 -13 1 4 81 14 65 56
162 75 174 6 3 8 20 6 38 l-5 32 14 -30 c9 -16 15 -35 16 -41z m796 39 c-10
-10 -19 5 -10 18 6 11 8 11 12 0 2 -7 1 -15 -2 -18z m69 17 c3 -5 1 -10 -4
-10 -6 0 -11 5 -11 10 0 6 2 10 4 10 3 0 8 -4 11 -10z m-655 -15 c-17 -20 -1
-19 22 2 22 20 36 10 17 -13 -12 -15 -11 -16 9 -10 34 11 27 -11 -10 -34 -18
-11 -37 -20 -43 -19 -5 0 -4 3 3 6 21 8 13 21 -10 15 -21 -5 -22 -4 -9 11 12
15 12 17 -3 11 -11 -4 -16 -1 -16 14 0 20 12 30 39 31 11 1 11 -2 1 -14z m560
5 c0 -5 -7 -10 -16 -10 -8 0 -12 5 -9 10 3 6 10 10 16 10 5 0 9 -4 9 -10z
m-810 -17 c0 -16 -25 -68 -98 -201 -12 -23 -24 -42 -26 -42 -2 0 -3 21 -1 48
2 48 23 105 35 97 4 -2 15 13 24 33 36 76 66 106 66 65z m-155 -3 c3 -5 1 -10
-4 -10 -6 0 -11 5 -11 10 0 6 2 10 4 10 3 0 8 -4 11 -10z m500 -40 c-30 -31
-69 -44 -45 -15 7 8 18 15 24 15 6 0 17 9 24 21 7 12 16 18 19 15 4 -3 -6 -20
-22 -36z m525 25 c0 -8 -4 -15 -10 -15 -5 0 -10 7 -10 15 0 8 5 15 10 15 6 0
10 -7 10 -15z m-70 -10 c0 -9 -9 -15 -22 -15 -13 0 -34 -3 -47 -7 -19 -5 -22
-3 -16 8 7 11 6 12 -6 2 -8 -6 -36 -14 -64 -18 -45 -7 -49 -6 -35 9 15 15 93
32 158 35 22 1 32 -4 32 -14z m26 -12 c-10 -10 -19 5 -10 18 6 11 8 11 12 0 2
-7 1 -15 -2 -18z m-445 -87 c-40 -39 -42 -14 -3 36 24 32 27 33 30 15 2 -12
-8 -32 -27 -51z m-276 44 c3 -5 1 -10 -4 -10 -6 0 -11 5 -11 10 0 6 2 10 4 10
3 0 8 -4 11 -10z m175 0 c0 -5 -4 -10 -10 -10 -5 0 -10 5 -10 10 0 6 5 10 10
10 6 0 10 -4 10 -10z m56 -27 c-11 -11 -19 6 -11 24 8 17 8 17 12 0 3 -10 2
-21 -1 -24z m524 17 c0 -5 -7 -10 -16 -10 -8 0 -12 5 -9 10 3 6 10 10 16 10 5
0 9 -4 9 -10z m100 0 c0 -5 -4 -10 -10 -10 -5 0 -10 5 -10 10 0 6 5 10 10 10
6 0 10 -4 10 -10z m-875 -10 c3 -5 1 -10 -4 -10 -6 0 -11 5 -11 10 0 6 2 10 4
10 3 0 8 -4 11 -10z m38 -25 c-7 -21 -13 -19 -13 6 0 11 4 18 10 14 5 -3 7
-12 3 -20z m177 5 c0 -5 -4 -10 -10 -10 -5 0 -10 5 -10 10 0 6 5 10 10 10 6 0
10 -4 10 -10z m590 0 c0 -5 -5 -10 -11 -10 -5 0 -7 5 -4 10 3 6 8 10 11 10 2
0 4 -4 4 -10z m-550 -30 c0 -11 -7 -20 -15 -20 -18 0 -19 12 -3 28 16 16 18
15 18 -8z m-240 -4 c0 -17 -14 -29 -23 -20 -8 8 3 34 14 34 5 0 9 -6 9 -14z
m780 4 c0 -5 -7 -10 -15 -10 -8 0 -15 5 -15 10 0 6 7 10 15 10 8 0 15 -4 15
-10z m-525 -35 c-39 -34 -55 -42 -55 -27 1 9 72 60 85 61 6 0 -8 -15 -30 -34z
m563 23 c-3 -7 -13 -15 -24 -17 -16 -3 -17 -1 -5 13 16 19 34 21 29 4z m-998
-54 c-9 -38 -17 -51 -26 -42 -5 6 22 78 29 78 3 0 1 -16 -3 -36z m970 16 c0
-5 -4 -10 -9 -10 -6 0 -13 5 -16 10 -3 6 1 10 9 10 9 0 16 -4 16 -10z m-759
-31 c-13 -14 -21 -18 -21 -9 0 13 32 42 38 35 2 -2 -5 -14 -17 -26z m793 10
c-3 -5 -10 -7 -15 -3 -5 3 -7 10 -3 15 3 5 10 7 15 3 5 -3 7 -10 3 -15z m-244
-4 c0 -8 -9 -15 -20 -15 -11 0 -20 7 -20 15 0 8 9 15 20 15 11 0 20 -7 20 -15z
m61 3 c0 -10 2 -10 6 0 6 16 18 15 37 -4 22 -21 20 -34 -4 -34 -11 0 -20 5
-20 11 0 5 -5 7 -11 4 -16 -11 -59 4 -59 20 0 18 50 21 51 3z m106 -22 c8 -8
-7 -26 -21 -26 -8 0 -16 9 -19 19 -4 15 0 19 15 16 12 -3 23 -6 25 -9z m53 -2
c0 -8 -4 -12 -10 -9 -5 3 -10 10 -10 16 0 5 5 9 10 9 6 0 10 -7 10 -16z m100
-9 c0 -8 -4 -15 -10 -15 -5 0 -10 7 -10 15 0 8 5 15 10 15 6 0 10 -7 10 -15z
m-755 -34 c2 -17 0 -33 -5 -36 -6 -4 -7 2 -3 12 6 16 5 16 -9 5 -15 -12 -15
-10 -6 22 13 41 18 41 23 -3z m448 18 c4 -15 2 -19 -10 -15 -8 3 -19 6 -24 6
-5 0 -9 7 -9 15 0 23 37 18 43 -6z m247 13 c0 -13 -12 -22 -22 -16 -10 6 -1
24 13 24 5 0 9 -4 9 -8z m-185 -23 c9 -27 4 -30 -25 -16 -33 17 -37 37 -7 37
17 0 28 -7 32 -21z m125 12 c0 -12 -20 -25 -27 -18 -7 7 6 27 18 27 5 0 9 -4
9 -9z m-980 -22 c0 -5 -4 -9 -10 -9 -5 0 -10 7 -10 16 0 8 5 12 10 9 6 -3 10
-10 10 -16z m898 9 c18 -18 15 -51 -4 -44 -9 3 -18 6 -20 6 -2 0 -4 11 -4 25
0 27 9 32 28 13z m166 -4 c3 -8 2 -12 -4 -9 -6 3 -10 10 -10 16 0 14 7 11 14
-7z m-49 -3 c7 -12 -12 -24 -25 -16 -11 7 -4 25 10 25 5 0 11 -4 15 -9z m-985
-17 c0 -8 -4 -12 -10 -9 -5 3 -10 10 -10 16 0 5 5 9 10 9 6 0 10 -7 10 -16z
m1070 6 c0 -5 -2 -10 -4 -10 -3 0 -8 5 -11 10 -3 6 -1 10 4 10 6 0 11 -4 11
-10z m-294 -27 c3 -16 8 -36 11 -46 4 -16 2 -17 -15 -8 -24 13 -27 17 -36 54
-5 23 -3 27 14 27 13 0 22 -9 26 -27z m144 23 c0 -2 -7 -9 -15 -16 -12 -10
-15 -10 -15 4 0 9 7 16 15 16 8 0 15 -2 15 -4z m101 -26 c5 0 9 -8 9 -17 -1
-17 -1 -17 -14 0 -7 9 -19 17 -26 17 -10 0 -9 4 1 17 13 15 14 15 17 0 2 -10
8 -17 13 -17z m-1061 10 c0 -5 -5 -10 -11 -10 -5 0 -7 5 -4 10 3 6 8 10 11 10
2 0 4 -4 4 -10z m863 -2 c10 -8 19 -35 23 -73 l7 -60 -25 23 c-16 15 -29 42
-35 73 -11 52 -3 61 30 37z m131 3 c8 -12 -31 -44 -44 -36 -8 5 -6 13 6 26 19
21 30 24 38 10z m-84 -30 c0 -6 -4 -13 -10 -16 -5 -3 -10 1 -10 9 0 9 5 16 10
16 6 0 10 -4 10 -9z m110 1 c0 -13 -12 -22 -22 -16 -10 6 -1 24 13 24 5 0 9
-4 9 -8z m-969 -25 c-10 -9 -11 -8 -5 6 3 10 9 15 12 12 3 -3 0 -11 -7 -18z
m275 -14 c-3 -4 -6 -1 -6 5 0 7 -7 9 -17 5 -16 -6 -16 -5 -4 11 13 16 15 16
24 1 5 -9 6 -19 3 -22z m784 28 c0 -6 -4 -13 -10 -16 -5 -3 -10 1 -10 9 0 9 5
16 10 16 6 0 10 -4 10 -9z m-194 -39 c-14 -14 -16 -14 -16 -1 0 20 23 44 29
28 2 -6 -4 -18 -13 -27z m124 31 c0 -13 -54 -63 -68 -63 -12 0 -12 4 3 20 10
11 24 20 32 20 7 0 13 7 13 15 0 8 5 15 10 15 6 0 10 -3 10 -7z m-95 -53 c-19
-20 -32 -27 -39 -20 -5 5 -8 11 -5 13 50 39 63 46 67 42 3 -3 -7 -19 -23 -35z
m161 4 c-4 -9 -9 -15 -11 -12 -3 3 -3 13 1 22 4 9 9 15 11 12 3 -3 3 -13 -1
-22z m-946 -6 c0 -16 -3 -19 -11 -11 -6 6 -8 16 -5 22 11 17 16 13 16 -11z
m880 2 c0 -5 -9 -14 -20 -20 -22 -12 -27 -1 -8 18 14 14 28 16 28 2z m-920
-10 c0 -5 -4 -10 -10 -10 -5 0 -10 5 -10 10 0 6 5 10 10 10 6 0 10 -4 10 -10z
m771 -64 c-5 -11 -12 -20 -17 -19 -10 2 -21 36 -23 67 -1 18 1 18 23 -3 19
-18 23 -28 17 -45z m162 44 c-6 -21 -18 -26 -28 -11 -4 7 17 28 32 31 0 0 -1
-9 -4 -20z m-260 -49 c2 -20 4 -37 3 -38 -1 -1 -11 6 -22 15 -12 9 -24 31 -27
49 -6 31 -5 32 17 21 17 -7 25 -21 29 -47z m160 38 c-13 -13 -26 -18 -34 -14
-9 6 -7 11 6 22 11 7 26 13 34 13 12 0 11 -5 -6 -21z m37 3 c0 -4 -10 -13 -22
-21 -23 -14 -23 -14 -4 8 20 22 26 25 26 13z m-821 -49 c1 -7 -3 -13 -9 -13
-5 0 -10 15 -9 33 0 27 2 29 9 12 5 -11 9 -26 9 -32z m71 10 c0 -7 -4 -13 -10
-13 -5 0 -10 12 -10 28 0 21 2 24 10 12 5 -8 10 -21 10 -27z m500 -33 c1 -21
3 -22 9 -7 6 17 8 17 20 3 7 -9 10 -24 6 -37 -7 -20 -8 -20 -40 11 -18 18 -35
45 -37 60 -4 28 -4 28 19 12 12 -10 23 -28 23 -42z m285 51 c7 -13 -32 -34
-47 -25 -7 5 -5 11 7 21 22 15 32 16 40 4z m85 -16 c0 -14 -4 -25 -9 -25 -5 0
-8 11 -7 25 1 33 16 33 16 0z m-980 0 c0 -8 -4 -15 -10 -15 -5 0 -10 7 -10 15
0 8 5 15 10 15 6 0 10 -7 10 -15z m704 -8 c8 -7 11 -26 8 -45 -4 -30 -6 -32
-21 -17 -12 10 -16 25 -13 45 5 34 8 36 26 17z m90 4 c3 -4 -3 -16 -14 -26
-18 -16 -20 -16 -20 -2 0 10 7 17 16 17 8 0 12 5 9 10 -3 6 -4 10 -1 10 3 0 7
-4 10 -9z m113 -18 c-9 -9 -20 -13 -24 -9 -4 4 -1 11 7 16 25 16 35 11 17 -7z
m-72 -2 c3 -5 1 -12 -5 -16 -5 -3 -10 1 -10 9 0 18 6 21 15 7z m-95 -30 c0
-11 -4 -23 -10 -26 -6 -4 -10 5 -10 19 0 14 5 26 10 26 6 0 10 -9 10 -19z m70
10 c0 -12 -20 -25 -27 -18 -7 7 6 27 18 27 5 0 9 -4 9 -9z m35 -26 c-17 -13
-31 -22 -33 -21 -7 8 12 35 31 43 34 16 35 5 2 -22z m-225 -54 c-1 -26 -1 -26
-29 9 -16 19 -26 40 -24 48 9 21 53 -27 53 -57z m269 43 c-6 -7 -15 -11 -21
-8 -5 3 -4 12 3 20 6 7 15 11 21 8 5 -3 4 -12 -3 -20z m-208 -22 c0 -22 2 -23
8 -9 6 16 9 17 19 5 9 -11 9 -19 -1 -32 -12 -16 -14 -15 -36 8 -16 17 -21 31
-16 45 9 28 25 17 26 -17z m97 26 c19 -19 14 -35 -17 -57 -24 -17 -30 -18 -34
-6 -4 10 -1 12 11 8 14 -5 15 -4 6 8 -8 9 -9 22 -3 37 9 25 19 28 37 10z
m-829 -45 c-30 -50 -33 -53 -24 -23 7 23 33 60 42 60 3 0 -6 -17 -18 -37z
m648 -23 c16 -19 19 -30 12 -48 -5 -13 -14 -20 -19 -17 -8 5 -7 11 1 21 9 11
7 14 -10 14 -23 0 -42 31 -23 38 6 2 8 11 5 20 -6 18 -4 16 34 -28z m-637 -21
c-20 -42 -20 -43 -16 -11 2 18 10 40 17 48 21 25 20 9 -1 -37z m855 42 c3 -5
1 -12 -5 -16 -5 -3 -10 1 -10 9 0 18 6 21 15 7z m65 -6 c0 -8 -7 -15 -15 -15
-8 0 -15 -5 -15 -12 0 -6 -3 -9 -6 -6 -8 8 14 48 26 48 6 0 10 -7 10 -15z
m-205 -31 c13 -20 14 -29 5 -38 -15 -14 -52 28 -43 49 8 22 18 18 38 -11z
m-648 -7 c-11 -7 -18 -27 -19 -50 -1 -21 -5 -40 -10 -44 -5 -3 -18 -19 -29
-37 -10 -17 -19 -25 -19 -18 0 8 8 26 19 40 10 15 21 42 25 61 6 34 34 76 44
66 3 -3 -2 -11 -11 -18z m500 -9 c-3 -7 -5 -2 -5 12 0 14 2 19 5 13 2 -7 2
-19 0 -25z m-19 5 c-3 -19 -34 -42 -55 -43 -7 0 -10 7 -6 18 13 37 67 59 61
25z m262 2 c0 -8 -4 -15 -9 -15 -5 0 -16 -3 -24 -6 -8 -3 -17 2 -21 11 -3 9
-2 13 3 10 5 -3 12 -1 16 5 10 15 35 12 35 -5z m50 -1 c0 -8 -4 -12 -10 -9 -5
3 -10 10 -10 16 0 5 5 9 10 9 6 0 10 -7 10 -16z m-745 -14 c-3 -5 -14 -10 -23
-10 -15 0 -15 2 -2 10 20 13 33 13 25 0z m99 -5 c-6 -16 -24 -21 -24 -7 0 11
11 22 21 22 5 0 6 -7 3 -15z m53 -18 c-2 -6 -16 -12 -33 -14 -26 -3 -27 -2
-11 11 9 7 17 19 17 26 0 10 3 10 15 0 9 -7 14 -18 12 -23z m643 23 c0 -5 -2
-10 -4 -10 -3 0 -8 5 -11 10 -3 6 -1 10 4 10 6 0 11 -4 11 -10z m-65 -31 c0
-17 -6 -25 -22 -27 -13 -2 -23 1 -23 7 0 6 8 11 18 11 13 0 14 2 3 9 -7 5 -10
14 -6 20 11 19 30 7 30 -20z m40 21 c3 -5 1 -10 -4 -10 -6 0 -11 5 -11 10 0 6
2 10 4 10 3 0 8 -4 11 -10z m-750 -9 c3 -5 1 -12 -5 -16 -5 -3 -10 1 -10 9 0
18 6 21 15 7z m483 -12 c7 -12 11 -24 7 -27 -9 -9 -40 13 -43 32 -5 23 21 20
36 -5z m72 1 c12 -22 5 -60 -11 -60 -5 0 -9 6 -9 14 0 8 -5 16 -11 18 -13 4
-3 48 11 48 5 0 14 -9 20 -20z m-518 -12 c-7 -7 -12 -8 -12 -2 0 14 12 26 19
19 2 -3 -1 -11 -7 -17z m383 -8 c-6 -9 -9 -9 -16 1 -10 17 0 34 13 21 6 -6 7
-16 3 -22z m215 9 c12 -22 -4 -54 -21 -43 -15 9 -10 22 9 27 10 3 4 5 -13 6
-29 2 -29 2 -11 16 25 19 23 19 36 -6z m-675 -6 c-4 -10 -9 -33 -12 -51 -3
-19 -12 -36 -19 -39 -8 -3 -11 -9 -8 -14 3 -5 0 -9 -5 -9 -14 0 -14 6 4 40 9
17 11 30 6 30 -11 0 -4 27 12 48 14 18 30 15 22 -5z m776 -26 c-6 -6 -14 -7
-18 -2 -5 4 -3 10 4 12 7 2 10 12 7 21 -4 14 -3 13 6 -1 9 -14 9 -22 1 -30z
m119 11 c0 -18 -2 -20 -9 -8 -6 8 -7 18 -5 22 9 14 14 9 14 -14z m-410 2 c0
-5 -4 -10 -10 -10 -5 0 -10 5 -10 10 0 6 5 10 10 10 6 0 10 -4 10 -10z m340 0
c0 -5 -4 -10 -10 -10 -5 0 -10 5 -10 10 0 6 5 10 10 10 6 0 10 -4 10 -10z
m-796 -22 c-8 -28 -10 -31 -22 -27 -13 5 4 49 18 49 7 0 9 -9 4 -22z m146 2
c0 -5 -7 -10 -16 -10 -8 0 -12 5 -9 10 3 6 10 10 16 10 5 0 9 -4 9 -10z m388
-10 c10 -17 10 -20 -6 -20 -24 0 -32 8 -25 26 7 19 16 18 31 -6z m86 -29 c-5
-6 -33 31 -33 44 -1 6 8 -1 19 -15 10 -14 17 -27 14 -29z m-744 35 c0 -2 -7
-9 -15 -16 -13 -11 -14 -10 -9 4 5 14 24 23 24 12z m155 -16 c-10 -11 -20 -18
-23 -16 -5 6 21 35 32 36 5 0 1 -9 -9 -20z m55 16 c0 -3 -4 -8 -10 -11 -5 -3
-10 -1 -10 4 0 6 5 11 10 11 6 0 10 -2 10 -4z m393 -10 c6 -15 -19 -30 -34
-20 -5 3 -9 12 -9 20 0 18 36 18 43 0z m203 -1 c-3 -8 0 -15 7 -15 7 -1 6 -5
-4 -13 -9 -7 -14 -19 -12 -27 2 -8 -3 -2 -12 13 -13 22 -14 31 -4 43 15 19 33
18 25 -1z m84 0 c-7 -8 -16 -12 -21 -9 -13 8 -1 24 18 24 13 0 13 -3 3 -15z
m-865 -51 c-17 -34 -20 -18 -4 23 6 15 13 23 15 17 3 -6 -2 -24 -11 -40z m275
42 c0 -3 -4 -8 -10 -11 -5 -3 -10 -1 -10 4 0 6 5 11 10 11 6 0 10 -2 10 -4z
m430 -44 c0 -9 -7 -6 -19 9 -11 13 -17 28 -14 33 7 11 33 -22 33 -42z m-504
11 c-10 -10 -19 5 -10 18 6 11 8 11 12 0 2 -7 1 -15 -2 -18z m35 4 c-10 -9
-11 -8 -5 6 3 10 9 15 12 12 3 -3 0 -11 -7 -18z m-151 -6 c0 -24 -16 -36 -26
-19 -4 6 -2 14 4 16 7 2 10 8 6 13 -3 5 0 9 5 9 6 0 11 -9 11 -19z m525 -29
c-2 -2 -18 4 -37 14 l-33 18 25 6 c19 5 28 1 37 -14 6 -12 10 -22 8 -24z m28
30 c-2 -6 4 -27 12 -46 22 -53 9 -44 -15 10 -24 55 -24 57 -7 51 6 -2 11 -9
10 -15z m-526 -12 c-3 -11 -1 -18 4 -14 15 9 10 -18 -8 -38 -22 -24 -43 -23
-36 2 3 11 9 20 14 20 5 0 9 8 9 18 0 18 8 32 18 32 2 0 2 -9 -1 -20z m743
-17 c0 -18 -35 0 -43 21 -5 13 -2 13 18 4 14 -6 25 -17 25 -25z m27 31 c-3 -3
-12 -4 -19 -1 -8 3 -5 6 6 6 11 1 17 -2 13 -5z m-567 -13 c0 -5 -7 -14 -15
-21 -16 -14 -18 -10 -9 14 6 17 24 22 24 7z m71 -54 l-21 -32 2 30 c2 37 31
77 36 51 2 -9 -6 -31 -17 -49z m299 21 c0 -14 -18 -9 -24 8 -11 28 -6 39 9 20
8 -11 15 -23 15 -28z m64 26 c17 -17 21 -34 8 -34 -5 0 -14 11 -20 25 -13 29
-10 31 12 9z m-574 -4 c0 -5 -5 -10 -11 -10 -5 0 -7 5 -4 10 3 6 8 10 11 10 2
0 4 -4 4 -10z m627 3 c-4 -3 1 -15 10 -26 18 -19 17 -20 -5 -8 -21 11 -22 10
-16 -13 6 -26 -8 -37 -21 -16 -6 10 21 70 32 70 3 0 3 -3 0 -7z m-751 -39
c-11 -8 -14 -14 -7 -14 7 0 9 -4 6 -10 -10 -16 -23 -11 -20 8 2 9 4 18 5 20 3
2 6 16 9 29 0 4 7 1 14 -6 10 -10 8 -15 -7 -27z m568 -3 c5 -17 27 -127 29
-150 1 -8 -4 -16 -12 -19 -11 -4 -13 2 -8 27 4 17 3 31 -2 31 -4 0 -11 25 -14
56 -3 31 -10 61 -15 66 -6 6 -8 0 -5 -16 3 -14 1 -26 -5 -26 -12 0 -22 24 -22
51 0 16 3 17 25 7 13 -6 27 -18 29 -27z m-667 7 c-3 -8 -6 -5 -6 6 -1 11 2 17
5 13 3 -3 4 -12 1 -19z m73 18 c0 -3 -4 -8 -10 -11 -5 -3 -10 -1 -10 4 0 6 5
11 10 11 6 0 10 -2 10 -4z m210 -21 c-7 -9 -15 -13 -18 -10 -3 2 1 11 8 20 7
9 15 13 18 10 3 -2 -1 -11 -8 -20z m499 -1 c6 -14 8 -30 5 -36 -5 -8 -34 41
-34 58 0 14 19 0 29 -22z m-588 -2 c-11 -21 -41 -48 -41 -38 0 4 7 18 16 31
19 29 40 34 25 7z m59 8 c0 -6 -9 -14 -19 -18 -11 -4 -20 -9 -20 -12 0 -3 -4
-18 -10 -34 -8 -18 -16 -26 -26 -22 -15 5 -40 -26 -29 -37 3 -3 0 -8 -6 -12
-7 -4 -10 2 -8 18 6 45 118 155 118 117z m207 -25 c-4 -8 -11 -15 -17 -15 -7
0 -7 6 0 21 13 23 26 19 17 -6z m523 10 c0 -8 -4 -15 -10 -15 -5 0 -7 7 -4 15
4 8 8 15 10 15 2 0 4 -7 4 -15z m-677 -30 c-9 -19 -23 -35 -30 -35 -18 0 -16
7 8 41 28 40 42 36 22 -6z m43 10 c1 -14 -1 -25 -5 -25 -4 0 -13 -20 -20 -46
-7 -25 -20 -52 -28 -60 -8 -7 -10 -14 -5 -14 15 0 2 -38 -14 -44 -8 -3 -13 -2
-13 2 3 19 -2 23 -14 13 -10 -8 -12 -23 -6 -58 11 -69 11 -73 -7 -73 -13 0
-15 8 -12 35 2 19 0 35 -4 35 -9 0 -5 36 4 46 4 3 4 18 2 32 -5 27 23 102 38
102 11 0 11 -2 -12 -54 l-19 -46 22 0 c16 0 18 3 8 9 -11 7 -10 12 6 28 11 11
18 24 16 31 -3 6 5 20 16 31 10 10 17 22 14 25 -4 3 0 6 7 6 7 0 10 3 7 6 -5
6 9 44 16 44 1 0 3 -11 3 -25z m224 -5 c0 -16 -4 -30 -8 -30 -5 0 -7 14 -4 30
2 17 6 30 8 30 2 0 4 -13 4 -30z m193 -39 c24 -82 7 -97 -20 -17 -12 38 -20
73 -17 78 10 15 20 -3 37 -61z m-372 26 c-16 -16 -26 0 -10 19 9 11 15 12 17
4 2 -6 -1 -17 -7 -23z m122 -4 c-3 -7 -10 -13 -15 -13 -6 0 -7 7 -4 16 3 9 6
21 6 27 0 7 4 7 9 -2 5 -8 7 -20 4 -28z m365 18 c3 -8 -1 -12 -9 -9 -7 2 -15
10 -17 17 -3 8 1 12 9 9 7 -2 15 -10 17 -17z m-618 5 c0 -2 -11 -29 -25 -60
-14 -31 -25 -65 -25 -76 0 -10 -3 -21 -8 -24 -4 -2 -7 -30 -5 -62 1 -38 -3
-62 -13 -71 -12 -12 -14 -12 -14 1 0 8 5 18 11 22 8 4 7 9 -2 16 -12 8 -12 10
0 15 11 5 11 7 0 14 -12 8 -12 10 0 18 7 5 9 11 4 14 -6 4 -7 26 -3 52 8 52 0
50 -16 -3 -15 -48 -18 -11 -3 41 9 35 13 38 37 33 15 -4 22 -3 15 1 -9 6 -7
17 9 41 17 27 38 43 38 28z m-218 -33 c-3 -16 -7 -22 -10 -15 -4 13 4 42 11
42 2 0 2 -12 -1 -27z m98 22 c0 -2 -8 -20 -17 -40 -16 -33 -33 -46 -33 -25 0
6 6 10 13 10 9 0 9 2 0 8 -18 12 -4 52 18 52 11 0 19 -2 19 -5z m-60 -24 c0
-11 -4 -23 -10 -26 -6 -4 -10 5 -10 19 0 14 5 26 10 26 6 0 10 -9 10 -19z
m565 -43 c1 -24 1 -35 -2 -25 -2 9 -9 15 -14 12 -5 -4 -9 13 -9 36 0 57 22 38
25 -23z m80 1 c-4 -11 -2 -19 3 -19 13 0 24 -44 16 -64 -10 -27 -27 -18 -21
11 3 16 -1 39 -10 54 -11 18 -13 36 -8 55 l7 29 9 -24 c5 -13 7 -32 4 -42z
m75 41 c-8 -5 -7 -9 4 -13 20 -8 21 -27 2 -27 -16 0 -31 34 -21 50 4 6 11 7
17 4 7 -4 6 -9 -2 -14z m48 8 c19 -19 14 -30 -8 -18 -11 6 -20 15 -20 20 0 14
14 12 28 -2z m-414 -13 c-4 -8 -10 -12 -15 -9 -11 6 -2 24 11 24 5 0 7 -7 4
-15z m102 -12 c-10 -10 -19 5 -10 18 6 11 8 11 12 0 2 -7 1 -15 -2 -18z m-152
-5 c-7 -25 -22 -38 -41 -38 -7 0 -10 7 -6 16 3 8 12 13 20 10 8 -3 11 -1 8 4
-7 12 2 30 16 30 6 0 7 -9 3 -22z m506 12 c0 -5 -4 -10 -10 -10 -5 0 -10 5
-10 10 0 6 5 10 10 10 6 0 10 -4 10 -10z m-390 -15 c0 -8 -5 -15 -11 -15 -5 0
-8 -4 -4 -9 3 -5 1 -12 -5 -16 -11 -7 -12 0 -4 33 7 25 24 30 24 7z m-40 -14
c0 -5 -5 -22 -11 -38 -7 -15 -13 -36 -14 -46 -1 -10 -9 -26 -18 -35 -16 -15
-17 -15 -17 0 0 9 7 23 15 31 8 8 11 17 8 20 -3 4 -2 14 2 24 5 10 9 23 10 28
1 6 3 13 3 18 3 10 22 9 22 -2z m80 0 c0 -6 -5 -13 -11 -16 -6 -4 -8 -13 -5
-21 3 -8 0 -11 -9 -7 -8 3 -13 8 -11 12 1 3 6 14 9 24 7 18 27 24 27 8z m328
-9 c2 -7 -2 -10 -12 -6 -9 3 -16 11 -16 16 0 13 23 5 28 -10z m-798 -2 c0 -5
-2 -10 -4 -10 -3 0 -8 5 -11 10 -3 6 -1 10 4 10 6 0 11 -4 11 -10z m343 -10
c-5 -20 -43 -49 -43 -33 0 13 30 53 40 53 4 0 6 -9 3 -20z m153 -7 c-10 -10
-19 5 -10 18 6 11 8 11 12 0 2 -7 1 -15 -2 -18z m44 -9 c0 -8 -4 -12 -10 -9
-5 3 -10 13 -10 21 0 8 5 12 10 9 6 -3 10 -13 10 -21z m218 8 c2 -7 -3 -12
-12 -12 -9 0 -16 7 -16 16 0 17 22 14 28 -4z m-723 -2 c3 -5 -1 -10 -9 -10 -9
0 -16 5 -16 10 0 6 4 10 9 10 6 0 13 -4 16 -10z m-35 -21 c0 -5 -4 -9 -10 -9
-5 0 -10 7 -10 16 0 8 5 12 10 9 6 -3 10 -10 10 -16z m290 17 c0 -21 -26 -66
-38 -67 -15 -1 -15 -2 -1 -6 11 -3 15 -12 11 -29 -6 -31 -16 -38 -31 -20 -17
20 6 96 28 97 10 0 12 2 4 6 -20 8 -15 23 7 23 11 0 20 -2 20 -4z m-227 -38
c-3 -18 -10 -42 -14 -53 -8 -19 -8 -19 -8 1 -1 34 11 84 20 84 5 0 6 -15 2
-32z m338 -1 c-8 -8 -11 -7 -11 4 0 20 13 34 18 19 3 -7 -1 -17 -7 -23z m-371
-12 c0 -13 -4 -27 -10 -30 -6 -4 -10 8 -10 30 0 22 4 34 10 30 6 -3 10 -17 10
-30z m540 26 c0 -6 -4 -13 -10 -16 -5 -3 -10 1 -10 9 0 9 5 16 10 16 6 0 10
-4 10 -9z m188 0 c11 -7 11 -9 -1 -14 -16 -6 -27 0 -27 15 0 10 11 10 28 -1z
m-428 -10 c0 -6 -4 -12 -9 -15 -5 -3 -7 -15 -4 -25 5 -21 -38 -73 -45 -53 -5
16 18 85 32 94 15 11 26 10 26 -1z m120 -6 c0 -8 -2 -15 -4 -15 -2 0 -6 7 -10
15 -3 8 -1 15 4 15 6 0 10 -7 10 -15z m47 -27 c-3 -7 -5 -2 -5 12 0 14 2 19 5
13 2 -7 2 -19 0 -25z m43 6 c0 -8 -5 -12 -10 -9 -6 4 -8 11 -5 16 9 14 15 11
15 -7z m40 0 c0 -8 -5 -12 -10 -9 -6 4 -8 11 -5 16 9 14 15 11 15 -7z m140 6
c0 -5 -2 -10 -4 -10 -3 0 -8 5 -11 10 -3 6 -1 10 4 10 6 0 11 -4 11 -10z m-80
-24 c0 -13 -9 -34 -20 -47 l-19 -24 -1 28 c0 28 19 67 32 67 5 0 8 -11 8 -24z
m50 4 c0 -5 -5 -10 -11 -10 -5 0 -7 5 -4 10 3 6 8 10 11 10 2 0 4 -4 4 -10z
m-695 -10 c3 -5 1 -10 -4 -10 -6 0 -11 5 -11 10 0 6 2 10 4 10 3 0 8 -4 11
-10z m395 -25 c-8 -10 -9 -15 -1 -15 6 0 11 -11 11 -24 0 -18 -9 -29 -32 -40
-40 -20 -45 -20 -26 2 19 22 32 53 29 71 -4 25 9 45 21 33 8 -8 8 -15 -2 -27z
m127 13 c-3 -8 -6 -5 -6 6 -1 11 2 17 5 13 3 -3 4 -12 1 -19z m57 -9 c-10 -16
-24 -9 -24 12 0 18 2 19 15 9 8 -7 12 -16 9 -21z m151 20 c11 -17 -1 -21 -15
-4 -8 9 -8 15 -2 15 6 0 14 -5 17 -11z m-275 -17 c0 -11 -9 -27 -20 -37 -22
-20 -25 -10 -10 29 11 30 30 35 30 8z m-242 -9 c-1 -10 2 -33 6 -50 5 -21 4
-33 -3 -33 -13 0 -22 31 -19 69 2 32 18 45 16 14z m482 7 c0 -5 -4 -10 -9 -10
-6 0 -13 5 -16 10 -3 6 1 10 9 10 9 0 16 -4 16 -10z m90 0 c0 -5 -5 -10 -11
-10 -5 0 -7 5 -4 10 3 6 8 10 11 10 2 0 4 -4 4 -10z m-427 -19 c-7 -26 -33
-36 -33 -12 0 21 8 31 26 31 7 0 10 -8 7 -19z m130 -22 c-21 -35 -33 -38 -26
-6 8 29 23 48 34 41 5 -3 2 -19 -8 -35z m49 13 c-6 -2 -9 -9 -6 -16 3 -7 -2
-19 -11 -26 -19 -16 -19 -9 1 38 11 24 18 32 22 23 3 -8 0 -17 -6 -19z m-239
-37 c-13 -10 -20 -10 -25 -2 -12 18 -10 23 15 34 29 13 37 -12 10 -32z m402
35 c3 -5 2 -10 -4 -10 -5 0 -13 5 -16 10 -3 6 -2 10 4 10 5 0 13 -4 16 -10z
m-618 -32 c-3 -7 -5 -2 -5 12 0 14 2 19 5 13 2 -7 2 -19 0 -25z m503 6 c0 -14
-4 -23 -10 -19 -5 3 -10 -1 -10 -9 0 -8 -5 -18 -10 -21 -13 -8 -2 44 13 63 14
18 17 15 17 -14z m75 5 c9 -27 1 -33 -25 -19 -17 9 -19 14 -9 26 16 20 27 18
34 -7z m-405 -20 c0 -11 -4 -17 -10 -14 -5 3 -10 13 -10 21 0 8 5 14 10 14 6
0 10 -9 10 -21z m98 9 c-3 -7 -10 -13 -15 -13 -6 0 -15 -3 -19 -7 -10 -10 -24
-10 -24 0 0 7 36 28 53 31 5 0 7 -5 5 -11z m88 -44 c-4 -18 -11 -34 -16 -34
-14 0 -12 64 2 78 17 17 22 1 14 -44z m44 17 c-6 -12 -15 -21 -21 -21 -5 0 -2
11 8 24 21 28 29 27 13 -3z m116 -6 c-3 -8 -2 -15 3 -15 14 0 23 -52 12 -63
-7 -7 -8 -2 -5 14 4 17 3 20 -4 11 -7 -11 -11 -7 -15 14 -5 27 0 54 10 54 3 0
3 -7 -1 -15z m64 -16 c0 -18 -35 -5 -38 14 -3 16 -1 17 17 7 12 -6 21 -15 21
-21z m-262 -11 c-4 -41 -28 -50 -28 -10 0 16 3 32 7 35 15 16 24 5 21 -25z
m132 7 c0 -7 -7 -15 -15 -19 -15 -5 -22 24 -9 37 9 9 24 -2 24 -18z m-212 3
c1 -7 4 -25 8 -40 4 -17 2 -28 -4 -28 -10 0 -22 32 -22 63 0 19 16 24 18 5z
m42 -23 c0 -19 -4 -35 -9 -35 -14 0 -21 54 -8 62 17 11 17 11 17 -27z m-76
-58 c-8 -4 -14 -16 -14 -25 0 -15 2 -15 10 -2 5 8 10 12 10 8 0 -3 2 -13 5
-21 5 -10 -1 -13 -25 -9 -30 4 -30 5 -15 28 8 13 17 38 19 56 7 54 8 55 16 13
6 -30 4 -42 -6 -48z m282 57 c-5 -17 -3 -23 4 -19 6 4 10 -4 10 -19 0 -32 -19
-35 -22 -3 0 12 -2 29 -3 37 -2 17 3 30 12 30 3 0 2 -12 -1 -26z m-79 -3 c1
-11 -5 -25 -13 -32 -17 -14 -19 2 -1 20 8 10 8 12 0 7 -6 -3 -14 -2 -17 3 -4
5 2 12 11 14 10 3 18 5 18 6 1 0 1 -8 2 -18z m-48 -27 c-6 -8 -15 -14 -20 -14
-14 0 -11 28 4 33 20 7 29 -4 16 -19z m84 9 c-4 -10 -2 -14 4 -10 14 9 26 -38
17 -65 -5 -16 -8 -17 -14 -7 -5 7 -4 21 1 31 7 13 6 18 -2 16 -12 -3 -22 30
-13 44 9 14 14 9 7 -9z m-276 -35 c-3 -7 -5 -2 -5 12 0 14 2 19 5 13 2 -7 2
-19 0 -25z m153 7 c0 -8 -4 -15 -10 -15 -5 0 -10 7 -10 15 0 8 5 15 10 15 6 0
10 -7 10 -15z m100 6 c0 -13 -29 -35 -37 -28 -7 8 15 37 28 37 5 0 9 -4 9 -9z
m-279 -24 c-10 -9 -11 -8 -5 6 3 10 9 15 12 12 3 -3 0 -11 -7 -18z m136 1 c-3
-8 -6 -5 -6 6 -1 11 2 17 5 13 3 -3 4 -12 1 -19z m90 3 c-1 -15 -4 -17 -14 -9
-7 5 -10 14 -7 19 10 16 23 9 21 -10z m-117 -11 c0 -11 -4 -20 -10 -20 -5 0
-10 9 -10 20 0 11 5 20 10 20 6 0 10 -9 10 -20z m180 -15 c0 -11 -29 -30 -35
-23 -2 2 1 13 6 26 9 24 29 22 29 -3z m-114 -12 c-10 -10 -19 5 -10 18 6 11 8
11 12 0 2 -7 1 -15 -2 -18z m44 -3 c0 -5 -4 -10 -10 -10 -5 0 -10 5 -10 10 0
6 5 10 10 10 6 0 10 -4 10 -10z m-30 -20 c0 -5 -2 -10 -4 -10 -3 0 -8 5 -11
10 -3 6 -1 10 4 10 6 0 11 -4 11 -10z m230 0 c0 -5 -5 -10 -11 -10 -5 0 -7 5
-4 10 3 6 8 10 11 10 2 0 4 -4 4 -10z m-180 -10 c0 -5 -7 -10 -16 -10 -8 0
-12 5 -9 10 3 6 10 10 16 10 5 0 9 -4 9 -10z m-85 -20 c3 -5 -1 -10 -10 -10
-9 0 -13 5 -10 10 3 6 8 10 10 10 2 0 7 -4 10 -10z m-73 -72 c-9 -9 -12 -7
-12 12 0 19 3 21 12 12 9 -9 9 -15 0 -24z m78 12 c0 -5 -4 -10 -10 -10 -5 0
-10 5 -10 10 0 6 5 10 10 10 6 0 10 -4 10 -10z m10 -30 c0 -5 -5 -10 -11 -10
-5 0 -7 5 -4 10 3 6 8 10 11 10 2 0 4 -4 4 -10z"/>
<path d="M1070 1963 c-25 -10 -55 -44 -56 -64 -1 -10 3 -19 7 -19 5 0 9 9 9
20 0 22 51 53 73 44 8 -3 17 2 20 10 5 12 0 16 -16 15 -12 0 -29 -3 -37 -6z"/>
<path d="M1234 1548 l-19 -23 23 19 c21 18 27 26 19 26 -2 0 -12 -10 -23 -22z"/>
<path d="M1297 1299 c4 -13 8 -18 11 -10 2 7 -1 18 -6 23 -8 8 -9 4 -5 -13z"/>
<path d="M1055 1275 c-16 -13 -25 -24 -20 -25 6 0 24 11 40 25 17 13 26 24 20
25 -5 0 -23 -11 -40 -25z"/>
<path d="M1237 1269 c4 -13 8 -18 11 -10 2 7 -1 18 -6 23 -8 8 -9 4 -5 -13z"/>
<path d="M1212 1185 c-2 -18 23 -104 32 -112 5 -4 6 7 2 26 -3 18 -6 42 -6 53
0 10 -4 17 -9 13 -5 -3 -12 3 -14 12 -3 10 -5 14 -5 8z"/>
<path d="M1164 1114 c3 -9 7 -46 7 -82 l2 -67 7 50 c6 46 -4 115 -17 115 -3 0
-2 -7 1 -16z"/>
<path d="M1411 1114 c0 -11 3 -14 6 -6 3 7 2 16 -1 19 -3 4 -6 -2 -5 -13z"/>
<path d="M981 1100 c0 -8 4 -24 9 -35 5 -13 9 -14 9 -5 0 8 -4 24 -9 35 -5 13
-9 14 -9 5z"/>
<path d="M1251 1021 c-1 -32 2 -42 10 -34 7 7 7 21 1 44 l-10 34 -1 -44z"/>
<path d="M1001 1030 c0 -8 6 -28 14 -45 17 -39 18 -21 0 25 -7 19 -14 28 -14
20z"/>
<path d="M1222 750 c0 -14 2 -19 5 -12 2 6 2 18 0 25 -3 6 -5 1 -5 -13z"/>
<path d="M741 1324 c0 -11 3 -14 6 -6 3 7 2 16 -1 19 -3 4 -6 -2 -5 -13z"/>
<path d="M732 1270 c0 -14 2 -19 5 -12 2 6 2 18 0 25 -3 6 -5 1 -5 -13z"/>
<path d="M622 1388 c-15 -41 -10 -45 11 -8 10 16 14 31 9 34 -4 2 -13 -9 -20
-26z"/>
<path d="M954 132 c4 -6 11 -40 16 -75 l9 -62 -3 63 c-1 36 -8 68 -16 75 -10
9 -11 9 -6 -1z"/>
<path d="M983 126 c4 -10 7 -42 7 -72 0 -40 4 -54 14 -54 16 0 31 70 23 111
-3 16 -5 11 -6 -16 -4 -70 -20 -88 -20 -23 -1 32 -6 60 -13 64 -8 5 -9 2 -5
-10z"/>
<path d="M901 125 c0 -5 6 -37 13 -70 11 -48 14 -53 14 -25 0 30 -26 123 -27
95z"/>
<path d="M769 103 c-13 -15 -12 -15 9 -4 23 12 28 21 13 21 -5 0 -15 -7 -22
-17z"/>
<path d="M860 101 c16 -31 12 -36 -11 -15 -20 18 -20 17 2 -21 30 -53 31 -54
26 -25 -2 14 1 11 6 -7 13 -40 29 -44 18 -5 -10 34 -39 92 -47 92 -2 0 0 -9 6
-19z"/>
<path d="M935 100 c2 -14 5 -42 5 -62 0 -21 5 -38 11 -38 12 0 3 69 -13 105
-7 17 -8 16 -3 -5z"/>
<path d="M808 70 c28 -26 40 -26 17 0 -10 11 -23 20 -28 20 -6 0 -1 -9 11 -20z"/>
<path d="M780 10 c0 -5 5 -10 11 -10 5 0 7 5 4 10 -3 6 -8 10 -11 10 -2 0 -4
-4 -4 -10z"/>
</g>
</svg>
